# Blender 3.6.0
# www.blender.org
mtllib vial_holder_fit_new.mtl
o vialHolder2
v -0.900000 0.001310 -0.900000
v -0.900000 0.001310 0.900000
v -0.900000 1.926310 -0.900000
v -0.900000 1.926310 0.900000
v -0.850940 0.028810 -0.052484
v -0.850940 0.028810 0.052484
v -0.850940 1.926310 -0.052485
v -0.850940 1.926310 0.052484
v -0.838040 0.028810 -0.156658
v -0.838040 0.028810 0.156656
v -0.838040 1.926310 -0.156658
v -0.838040 1.926310 0.156656
v -0.812437 0.028810 -0.258455
v -0.812437 0.028810 0.258455
v -0.812437 1.926310 -0.258455
v -0.812437 1.926310 0.258455
v -0.774518 0.028810 -0.356335
v -0.774518 0.028810 0.356335
v -0.774518 1.926310 -0.356335
v -0.774518 1.926310 0.356335
v -0.724859 0.028810 -0.448814
v -0.724859 0.028810 0.448813
v -0.724859 1.926310 -0.448815
v -0.724859 1.926310 0.448813
v -0.664211 0.028810 -0.534488
v -0.664211 0.028810 0.534488
v -0.664211 1.926310 -0.534489
v -0.664211 1.926310 0.534488
v -0.593494 0.028810 -0.612061
v -0.593494 0.028810 0.612061
v -0.593494 1.926310 -0.612061
v -0.593494 1.926310 0.612061
v -0.513780 0.028810 -0.680356
v -0.513780 0.028810 0.680356
v -0.513780 1.926310 -0.680356
v -0.513780 1.926310 0.680356
v -0.426278 0.028810 -0.738336
v -0.426278 0.028810 0.738336
v -0.426278 1.926310 -0.738336
v -0.426278 1.926310 0.738336
v -0.332315 0.028810 -0.785125
v -0.332315 0.028810 0.785124
v -0.332315 1.926310 -0.785125
v -0.332315 1.926310 0.785124
v -0.233314 0.028810 -0.820012
v -0.233314 0.028810 0.820012
v -0.233314 1.926310 -0.820012
v -0.233314 1.926310 0.820011
v -0.130775 0.028810 -0.842467
v -0.130775 0.028810 0.842467
v -0.130775 1.926310 -0.842467
v -0.130775 1.926310 0.842467
v -0.026255 0.028810 -0.852152
v -0.026255 0.028810 0.852152
v -0.026255 1.926310 -0.852153
v -0.026255 1.926310 0.852152
v 0.078665 0.028810 -0.848921
v 0.078665 0.028810 0.848920
v 0.078665 1.926310 -0.848921
v 0.078665 1.926310 0.848920
v 0.182390 0.028810 -0.832819
v 0.182390 0.028810 0.832819
v 0.182390 1.926310 -0.832819
v 0.182390 1.926310 0.832819
v 0.283351 0.028810 -0.804094
v 0.283351 0.028810 0.804092
v 0.283351 1.926310 -0.804094
v 0.283351 1.926310 0.804092
v 0.380017 0.028810 -0.763178
v 0.380017 0.028810 0.763177
v 0.380017 1.926310 -0.763179
v 0.380017 1.926310 0.763177
v 0.470923 0.028810 -0.710694
v 0.470923 0.028810 0.710694
v 0.470923 1.926310 -0.710694
v 0.470923 1.926310 0.710694
v 0.554689 0.028810 -0.647436
v 0.554689 0.028810 0.647436
v 0.554689 1.926310 -0.647436
v 0.554689 1.926310 0.647436
v 0.630048 0.028810 -0.574364
v 0.630048 0.028810 0.574363
v 0.630048 1.926310 -0.574365
v 0.630048 1.926310 0.574363
v 0.695855 0.028810 -0.492586
v 0.695855 0.028810 0.492586
v 0.695855 1.926310 -0.492586
v 0.695855 1.926310 0.492585
v 0.751114 0.028810 -0.403339
v 0.751114 0.028810 0.403339
v 0.751114 1.926310 -0.403339
v 0.751114 1.926310 0.403339
v 0.794986 0.028810 -0.307979
v 0.794986 0.028810 0.307979
v 0.794986 1.926310 -0.307979
v 0.794986 1.926310 0.307979
v 0.826807 0.028810 -0.207950
v 0.826807 0.028810 0.207950
v 0.826807 1.926310 -0.207951
v 0.826807 1.926310 0.207950
v 0.846096 0.028810 -0.104770
v 0.846096 0.028810 0.104770
v 0.846096 1.926310 -0.104770
v 0.846096 1.926310 0.104769
v 0.852557 0.028810 -0.000000
v 0.852557 1.926310 -0.000000
v 0.900000 0.001310 -0.900000
v 0.900000 0.001310 0.900000
v 0.900000 1.926310 -0.900000
v 0.900000 1.926310 0.900000
vn -0.0000 1.0000 -0.0000
vn -0.0000 -0.0000 -1.0000
vn -1.0000 -0.0000 -0.0000
vn -0.9924 -0.0000 -0.1229
vn -0.9924 -0.0000 0.1229
vn -0.9698 -0.0000 0.2439
vn -0.9325 -0.0000 0.3612
vn -0.8810 -0.0000 0.4731
vn -0.8162 -0.0000 0.5778
vn -0.7390 -0.0000 0.6737
vn -0.6506 -0.0000 0.7594
vn -0.5524 -0.0000 0.8336
vn -0.4457 -0.0000 0.8952
vn -0.3324 -0.0000 0.9431
vn -0.2139 -0.0000 0.9769
vn -0.0923 -0.0000 0.9957
vn 0.0308 -0.0000 0.9995
vn 0.1534 -0.0000 0.9882
vn 0.2737 -0.0000 0.9618
vn 0.3898 -0.0000 0.9209
vn 0.5000 -0.0000 0.8660
vn 0.6026 -0.0000 0.7980
vn 0.6961 -0.0000 0.7179
vn 0.7791 -0.0000 0.6269
vn 0.8502 -0.0000 0.5264
vn 0.9084 -0.0000 0.4180
vn 0.9085 -0.0000 0.4180
vn 0.9530 -0.0000 0.3031
vn 0.9529 -0.0000 0.3032
vn 0.9830 -0.0000 0.1837
vn 0.9830 -0.0000 0.1838
vn 0.9981 -0.0000 0.0616
vn 0.9981 -0.0000 -0.0616
vn 0.9830 -0.0000 -0.1838
vn 0.9830 -0.0000 -0.1837
vn 0.9529 -0.0000 -0.3032
vn 0.9530 -0.0000 -0.3031
vn 0.9085 -0.0000 -0.4180
vn 0.9084 -0.0000 -0.4180
vn 0.8502 -0.0000 -0.5264
vn 0.7791 -0.0000 -0.6269
vn 0.6961 -0.0000 -0.7179
vn 0.6026 -0.0000 -0.7980
vn 0.5000 -0.0000 -0.8660
vn 0.3898 -0.0000 -0.9209
vn 0.2737 -0.0000 -0.9618
vn 0.1534 -0.0000 -0.9882
vn 0.0308 -0.0000 -0.9995
vn -0.0923 -0.0000 -0.9957
vn -0.2139 -0.0000 -0.9768
vn -0.2139 -0.0000 -0.9769
vn -0.3324 -0.0000 -0.9432
vn -0.3324 -0.0000 -0.9431
vn -0.4457 -0.0000 -0.8952
vn -0.5524 -0.0000 -0.8336
vn -0.6506 -0.0000 -0.7594
vn -0.7390 -0.0000 -0.6737
vn -0.8162 -0.0000 -0.5778
vn -0.8810 -0.0000 -0.4731
vn -0.9325 -0.0000 -0.3612
vn -0.9698 -0.0000 -0.2439
vn 1.0000 -0.0000 -0.0000
vn -0.0000 -0.0000 1.0000
vn -0.0000 -1.0000 -0.0000
vt 0.000000 0.071046
vt -0.008731 0.070508
vt 0.008731 0.070508
vt 0.017329 0.068901
vt -0.017329 0.068901
vt 0.025665 0.066249
vt -0.025665 0.066249
vt 0.033612 0.062593
vt -0.033612 0.062593
vt 0.041049 0.057988
vt -0.041049 0.057988
vt 0.047864 0.052504
vt -0.047864 0.052504
vt 0.053953 0.046224
vt -0.053953 0.046224
vt 0.059224 0.039244
vt -0.059224 0.039244
vt 0.063598 0.031668
vt -0.063598 0.031668
vt 0.067008 0.023613
vt -0.067008 0.023613
vt 0.069402 0.015199
vt -0.069402 0.015199
vt 0.070743 0.006555
vt -0.070743 0.006555
vt 0.071013 -0.002188
vt -0.071013 -0.002188
vt 0.070206 -0.010898
vt -0.070206 -0.010898
vt 0.068334 -0.019443
vt -0.068334 -0.019443
vt 0.065427 -0.027693
vt -0.065427 -0.027693
vt 0.061528 -0.035523
vt -0.061528 -0.035523
vt 0.056696 -0.042815
vt -0.056696 -0.042815
vt 0.051005 -0.049458
vt -0.051005 -0.049458
vt 0.044541 -0.055351
vt -0.044541 -0.055351
vt 0.037401 -0.060405
vt -0.037401 -0.060405
vt 0.029695 -0.064543
vt -0.029695 -0.064543
vt 0.021538 -0.067703
vt -0.021538 -0.067703
vt 0.013055 -0.069837
vt -0.013055 -0.069837
vt 0.004374 -0.070912
vt -0.004374 -0.070912
vt 0.150000 0.175000
vt 0.000000 0.175000
vt 0.150000 0.000000
vt 0.000000 0.000000
vt 0.002500 0.214446
vt 0.175000 0.214446
vt 0.002500 0.223199
vt 0.175000 0.223199
vt 0.002500 -0.223199
vt 0.175000 -0.223199
vt 0.002500 -0.214446
vt 0.175000 -0.214446
vt 0.002500 -0.205693
vt 0.175000 -0.205693
vt 0.002500 -0.196940
vt 0.175000 -0.196940
vt 0.002500 -0.188187
vt 0.175000 -0.188187
vt 0.002500 -0.179434
vt 0.175000 -0.179434
vt 0.002500 -0.170682
vt 0.175000 -0.170682
vt 0.002500 -0.161929
vt 0.175000 -0.161929
vt 0.002500 -0.153176
vt 0.175000 -0.153176
vt 0.002500 -0.144423
vt 0.175000 -0.144423
vt 0.002500 -0.135670
vt 0.175000 -0.135670
vt 0.002500 -0.126917
vt 0.175000 -0.126917
vt 0.002500 -0.118164
vt 0.175000 -0.118164
vt 0.002500 -0.109411
vt 0.175000 -0.109411
vt 0.002500 -0.100658
vt 0.175000 -0.100658
vt 0.002500 -0.091905
vt 0.175000 -0.091905
vt 0.002500 -0.083153
vt 0.175000 -0.083153
vt 0.002500 -0.074400
vt 0.175000 -0.074400
vt 0.002500 -0.065647
vt 0.175000 -0.065647
vt 0.002500 -0.056894
vt 0.175000 -0.056894
vt 0.002500 -0.048141
vt 0.175000 -0.048141
vt 0.002500 -0.039388
vt 0.175000 -0.039388
vt 0.002500 -0.030635
vt 0.175000 -0.030635
vt 0.002500 -0.021882
vt 0.175000 -0.021882
vt 0.002500 -0.013129
vt 0.175000 -0.013129
vt 0.002500 -0.004376
vt 0.175000 -0.004376
vt 0.002500 0.004376
vt 0.175000 0.004376
vt 0.002500 0.013129
vt 0.175000 0.013129
vt 0.002500 0.021882
vt 0.175000 0.021882
vt 0.002500 0.030635
vt 0.175000 0.030635
vt 0.002500 0.039388
vt 0.175000 0.039388
vt 0.002500 0.048141
vt 0.175000 0.048141
vt 0.002500 0.056894
vt 0.175000 0.056894
vt 0.002500 0.065647
vt 0.175000 0.065647
vt 0.002500 0.074400
vt 0.175000 0.074400
vt 0.002500 0.083153
vt 0.175000 0.083153
vt 0.002500 0.091905
vt 0.175000 0.091905
vt 0.002500 0.100658
vt 0.175000 0.100658
vt 0.002500 0.109411
vt 0.175000 0.109411
vt 0.002500 0.118164
vt 0.175000 0.118164
vt 0.002500 0.126917
vt 0.175000 0.126917
vt 0.002500 0.135670
vt 0.175000 0.135670
vt 0.002500 0.144423
vt 0.175000 0.144423
vt 0.002500 0.153176
vt 0.175000 0.153176
vt 0.002500 0.161929
vt 0.175000 0.161929
vt 0.002500 0.170682
vt 0.175000 0.170682
vt 0.002500 0.179434
vt 0.175000 0.179434
vt 0.002500 0.188187
vt 0.175000 0.188187
vt 0.002500 0.196940
vt 0.175000 0.196940
vt 0.002500 0.205693
vt 0.175000 0.205693
vt -0.075000 -0.075000
vt 0.075000 -0.075000
vt -0.075000 0.075000
vt 0.075000 0.075000
s 0
usemtl 191,191,191.006
f 105/1/1 101/2/1 102/3/1
f 102/3/1 101/2/1 98/4/1
f 98/4/1 101/2/1 97/5/1
f 98/4/1 97/5/1 94/6/1
f 94/6/1 97/5/1 93/7/1
f 94/6/1 93/7/1 90/8/1
f 90/8/1 93/7/1 89/9/1
f 90/8/1 89/9/1 86/10/1
f 86/10/1 89/9/1 85/11/1
f 86/10/1 85/11/1 82/12/1
f 82/12/1 85/11/1 81/13/1
f 82/12/1 81/13/1 78/14/1
f 78/14/1 81/13/1 77/15/1
f 78/14/1 77/15/1 74/16/1
f 74/16/1 77/15/1 73/17/1
f 74/16/1 73/17/1 70/18/1
f 70/18/1 73/17/1 69/19/1
f 70/18/1 69/19/1 66/20/1
f 66/20/1 69/19/1 65/21/1
f 66/20/1 65/21/1 62/22/1
f 62/22/1 65/21/1 61/23/1
f 62/22/1 61/23/1 58/24/1
f 58/24/1 61/23/1 57/25/1
f 58/24/1 57/25/1 54/26/1
f 54/26/1 57/25/1 53/27/1
f 54/26/1 53/27/1 50/28/1
f 50/28/1 53/27/1 49/29/1
f 50/28/1 49/29/1 46/30/1
f 46/30/1 49/29/1 45/31/1
f 46/30/1 45/31/1 42/32/1
f 42/32/1 45/31/1 41/33/1
f 42/32/1 41/33/1 38/34/1
f 38/34/1 41/33/1 37/35/1
f 38/34/1 37/35/1 34/36/1
f 34/36/1 37/35/1 33/37/1
f 34/36/1 33/37/1 30/38/1
f 30/38/1 33/37/1 29/39/1
f 30/38/1 29/39/1 26/40/1
f 26/40/1 29/39/1 25/41/1
f 26/40/1 25/41/1 22/42/1
f 22/42/1 25/41/1 21/43/1
f 22/42/1 21/43/1 18/44/1
f 18/44/1 21/43/1 17/45/1
f 18/44/1 17/45/1 14/46/1
f 14/46/1 17/45/1 13/47/1
f 14/46/1 13/47/1 10/48/1
f 10/48/1 13/47/1 9/49/1
f 10/48/1 9/49/1 6/50/1
f 6/50/1 9/49/1 5/51/1
f 3/52/2 109/53/2 1/54/2
f 1/54/2 109/53/2 107/55/2
f 4/52/3 3/53/3 2/54/3
f 2/54/3 3/53/3 1/55/3
f 102/56/4 104/57/4 105/58/3
f 105/58/3 104/57/4 106/59/3
f 105/60/3 106/61/3 101/62/5
f 101/62/5 106/61/3 103/63/5
f 101/62/5 103/63/5 97/64/6
f 97/64/6 103/63/5 99/65/6
f 97/64/6 99/65/6 93/66/7
f 93/66/7 99/65/6 95/67/7
f 93/66/7 95/67/7 89/68/8
f 89/68/8 95/67/7 91/69/8
f 89/68/8 91/69/8 85/70/9
f 85/70/9 91/69/8 87/71/9
f 85/70/9 87/71/9 81/72/10
f 81/72/10 87/71/9 83/73/10
f 81/72/10 83/73/10 77/74/11
f 77/74/11 83/73/10 79/75/11
f 77/74/11 79/75/11 73/76/12
f 73/76/12 79/75/11 75/77/12
f 73/76/12 75/77/12 69/78/13
f 69/78/13 75/77/12 71/79/13
f 69/78/13 71/79/13 65/80/14
f 65/80/14 71/79/13 67/81/14
f 65/80/14 67/81/14 61/82/15
f 61/82/15 67/81/14 63/83/15
f 61/82/15 63/83/15 57/84/16
f 57/84/16 63/83/15 59/85/16
f 57/84/16 59/85/16 53/86/17
f 53/86/17 59/85/16 55/87/17
f 53/86/17 55/87/17 49/88/18
f 49/88/18 55/87/17 51/89/18
f 49/88/18 51/89/18 45/90/19
f 45/90/19 51/89/18 47/91/19
f 45/90/19 47/91/19 41/92/20
f 41/92/20 47/91/19 43/93/20
f 41/92/20 43/93/20 37/94/21
f 37/94/21 43/93/20 39/95/21
f 37/94/21 39/95/21 33/96/22
f 33/96/22 39/95/21 35/97/22
f 33/96/22 35/97/22 29/98/23
f 29/98/23 35/97/22 31/99/23
f 29/98/23 31/99/23 25/100/24
f 25/100/24 31/99/23 27/101/24
f 25/100/24 27/101/24 21/102/25
f 21/102/25 27/101/24 23/103/25
f 21/102/25 23/103/25 17/104/26
f 17/104/26 23/103/25 19/105/26
f 17/104/27 19/105/27 13/106/28
f 13/106/28 19/105/27 15/107/28
f 13/106/29 15/107/29 9/108/30
f 9/108/30 15/107/29 11/109/30
f 9/108/31 11/109/31 5/110/32
f 5/110/32 11/109/31 7/111/32
f 5/110/32 7/111/32 6/112/33
f 6/112/33 7/111/32 8/113/33
f 6/112/33 8/113/33 10/114/34
f 10/114/34 8/113/33 12/115/34
f 10/114/35 12/115/35 14/116/36
f 14/116/36 12/115/35 16/117/36
f 14/116/37 16/117/37 18/118/38
f 18/118/39 16/117/37 20/119/39
f 18/118/39 20/119/39 22/120/40
f 22/120/40 20/119/39 24/121/40
f 22/120/40 24/121/40 26/122/41
f 26/122/41 24/121/40 28/123/41
f 26/122/41 28/123/41 30/124/42
f 30/124/42 28/123/41 32/125/42
f 30/124/42 32/125/42 34/126/43
f 34/126/43 32/125/42 36/127/43
f 34/126/43 36/127/43 38/128/44
f 38/128/44 36/127/43 40/129/44
f 38/128/44 40/129/44 42/130/45
f 42/130/45 40/129/44 44/131/45
f 42/130/45 44/131/45 46/132/46
f 46/132/46 44/131/45 48/133/46
f 46/132/46 48/133/46 50/134/47
f 50/134/47 48/133/46 52/135/47
f 50/134/47 52/135/47 54/136/48
f 54/136/48 52/135/47 56/137/48
f 54/136/48 56/137/48 58/138/49
f 58/138/49 56/137/48 60/139/49
f 58/138/49 60/139/49 62/140/50
f 62/140/50 60/139/49 64/141/50
f 62/140/51 64/141/51 66/142/52
f 66/142/52 64/141/51 68/143/52
f 66/142/53 68/143/53 70/144/54
f 70/144/54 68/143/53 72/145/54
f 70/144/54 72/145/54 74/146/55
f 74/146/55 72/145/54 76/147/55
f 74/146/55 76/147/55 78/148/56
f 78/148/56 76/147/55 80/149/56
f 78/148/56 80/149/56 82/150/57
f 82/150/57 80/149/56 84/151/57
f 82/150/57 84/151/57 86/152/58
f 86/152/58 84/151/57 88/153/58
f 86/152/58 88/153/58 90/154/59
f 90/154/59 88/153/58 92/155/59
f 90/154/59 92/155/59 94/156/60
f 94/156/60 92/155/59 96/157/60
f 94/156/60 96/157/60 98/158/61
f 98/158/61 96/157/60 100/159/61
f 98/158/61 100/159/61 102/56/4
f 102/56/4 100/159/61 104/57/4
f 109/52/62 110/53/62 107/54/62
f 107/54/62 110/53/62 108/55/62
f 110/52/63 4/53/63 108/54/63
f 108/54/63 4/53/63 2/55/63
f 2/160/64 1/161/64 108/162/64
f 108/162/64 1/161/64 107/163/64
f 110/163/1 56/26/1 4/161/1
f 4/161/1 56/26/1 52/28/1
f 4/161/1 52/28/1 48/30/1
f 109/162/1 106/1/1 110/163/1
f 110/163/1 106/1/1 104/3/1
f 110/163/1 104/3/1 100/4/1
f 3/160/1 55/27/1 109/162/1
f 109/162/1 55/27/1 59/25/1
f 109/162/1 59/25/1 63/23/1
f 4/161/1 7/51/1 3/160/1
f 3/160/1 7/51/1 11/49/1
f 3/160/1 11/49/1 15/47/1
f 100/4/1 96/6/1 110/163/1
f 110/163/1 96/6/1 92/8/1
f 110/163/1 92/8/1 88/10/1
f 88/10/1 84/12/1 110/163/1
f 110/163/1 84/12/1 80/14/1
f 110/163/1 80/14/1 76/16/1
f 76/16/1 72/18/1 110/163/1
f 110/163/1 72/18/1 68/20/1
f 110/163/1 68/20/1 64/22/1
f 64/22/1 60/24/1 110/163/1
f 110/163/1 60/24/1 56/26/1
f 48/30/1 44/32/1 4/161/1
f 4/161/1 44/32/1 40/34/1
f 4/161/1 40/34/1 36/36/1
f 36/36/1 32/38/1 4/161/1
f 4/161/1 32/38/1 28/40/1
f 4/161/1 28/40/1 24/42/1
f 24/42/1 20/44/1 4/161/1
f 4/161/1 20/44/1 16/46/1
f 4/161/1 16/46/1 12/48/1
f 12/48/1 8/50/1 4/161/1
f 4/161/1 8/50/1 7/51/1
f 15/47/1 19/45/1 3/160/1
f 3/160/1 19/45/1 23/43/1
f 3/160/1 23/43/1 27/41/1
f 27/41/1 31/39/1 3/160/1
f 3/160/1 31/39/1 35/37/1
f 3/160/1 35/37/1 39/35/1
f 39/35/1 43/33/1 3/160/1
f 3/160/1 43/33/1 47/31/1
f 3/160/1 47/31/1 51/29/1
f 51/29/1 55/27/1 3/160/1
f 63/23/1 67/21/1 109/162/1
f 109/162/1 67/21/1 71/19/1
f 109/162/1 71/19/1 75/17/1
f 75/17/1 79/15/1 109/162/1
f 109/162/1 79/15/1 83/13/1
f 109/162/1 83/13/1 87/11/1
f 87/11/1 91/9/1 109/162/1
f 109/162/1 91/9/1 95/7/1
f 109/162/1 95/7/1 99/5/1
f 99/5/1 103/2/1 109/162/1
f 109/162/1 103/2/1 106/1/1
